HIERARCHY
ROOT Hips
{
	OFFSET -3.958830 18.904000 13.208200
	CHANNELS 6 Xposition Yposition Zposition Zrotation Yrotation Xrotation 
	JOINT LHipJoint
	{
		OFFSET 0.000000 0.000000 0.000000
		CHANNELS 3 Zrotation Yrotation Xrotation
		JOINT LeftUpLeg
		{
			OFFSET 1.800000 -1.400000 0.085000
			CHANNELS 3 Zrotation Yrotation Xrotation
			JOINT LeftLeg
			{
				OFFSET 2.215000 -6.000000 0.000000
				CHANNELS 3 Zrotation Yrotation Xrotation
				JOINT LeftFoot
				{
					OFFSET 2.500000 -6.900000 0.000000
					CHANNELS 3 Zrotation Yrotation Xrotation
					JOINT LeftToeBase
					{
						OFFSET 0.200000 -0.500000 1.950000
						CHANNELS 3 Zrotation Yrotation Xrotation
						End Site
						{
							OFFSET 0.000000 0.000000 0.000000
						}
					}
				}
			}
		}
	}
	JOINT RHipJoint
	{
		OFFSET 0.000000 0.000000 0.000000
		CHANNELS 3 Zrotation Yrotation Xrotation
		JOINT RightUpLeg
		{
			OFFSET -1.800000 -1.400000 0.085000
			CHANNELS 3 Zrotation Yrotation Xrotation
			JOINT RightLeg
			{
				OFFSET -2.215000 -6.000000 0.000000
				CHANNELS 3 Zrotation Yrotation Xrotation
				JOINT RightFoot
				{
					OFFSET -2.500000 -6.900000 0.000000
					CHANNELS 3 Zrotation Yrotation Xrotation
					JOINT RightToeBase
					{
						OFFSET -0.200000 -0.500000 1.950000
						CHANNELS 3 Zrotation Yrotation Xrotation
						End Site
						{
							OFFSET 0.000000 0.000000 0.000000
						}
					}
				}
			}
		}
	}
	JOINT LowerBack
	{
		OFFSET 0.000000 0.000000 0.000000
		CHANNELS 3 Zrotation Yrotation Xrotation
		JOINT Spine
		{
			OFFSET -0.087000 1.940000 -0.288900
			CHANNELS 3 Zrotation Yrotation Xrotation
			JOINT Spine1
			{
				OFFSET 0.000000 1.950000 0.060000
				CHANNELS 3 Zrotation Yrotation Xrotation
				JOINT Neck
				{
					OFFSET 0.000000 0.000000 0.000000
					CHANNELS 3 Zrotation Yrotation Xrotation
					JOINT Neck1
					{
						OFFSET 0.000000 1.600000 0.340000
						CHANNELS 3 Zrotation Yrotation Xrotation
						JOINT Head
						{
							OFFSET 0.000000 1.667000 -0.240000
							CHANNELS 3 Zrotation Yrotation Xrotation
							End Site
							{
								OFFSET 0.000000 0.000000 0.000000
							}
						}
					}
				}
				JOINT LeftShoulder
				{
					OFFSET 0.000000 0.000000 0.000000
					CHANNELS 3 Zrotation Yrotation Xrotation
					JOINT LeftArm
					{
						OFFSET 2.700000 1.550000 -0.730000
						CHANNELS 3 Zrotation Yrotation Xrotation
						JOINT LeftForeArm
						{
							OFFSET 5.450000 0.000000 0.000000
							CHANNELS 3 Zrotation Yrotation Xrotation
							JOINT LeftHand
							{
								OFFSET 3.450000 0.000000 0.000000
								CHANNELS 3 Zrotation Yrotation Xrotation
								JOINT LeftHandIndex1
								{
									OFFSET 0.750000 0.000000 0.000000
									CHANNELS 3 Zrotation Yrotation Xrotation
									End Site
									{
										OFFSET 0.000000 0.000000 0.000000
									}
								}
							}
						}
					}
				}
				JOINT RightShoulder
				{
					OFFSET 0.000000 0.000000 0.000000
					CHANNELS 3 Zrotation Yrotation Xrotation
					JOINT RightArm
					{
						OFFSET -2.700000 1.550000 -0.730000
						CHANNELS 3 Zrotation Yrotation Xrotation
						JOINT RightForeArm
						{
							OFFSET -5.450000 0.000000 0.000000
							CHANNELS 3 Zrotation Yrotation Xrotation
							JOINT RightHand
							{
								OFFSET -3.450000 0.000000 0.000000
								CHANNELS 3 Zrotation Yrotation Xrotation
								JOINT RightHandIndex1
								{
									OFFSET -0.750000 0.000000 0.000000
									CHANNELS 3 Zrotation Yrotation Xrotation
									End Site
									{
										OFFSET 0.000000 0.000000 0.000000
									}
								}
							}
						}
					}
				}
			}
		}
	}
}
MOTION
Frames: 8
Frame Time: 0.016667
-0.365340 17.663200 -1.577370 1.228532 -1.943329 -0.265639 -14.779979 13.252731 2.753280 13.608454 -1.203718 -17.124793 -6.053414 6.221322 14.267764 -0.225997 4.062664 3.088935 -0.044410 -0.102700 -0.007090 18.474792 -12.054254 1.914419 -15.691212 0.095260 -14.535350 -3.553154 -3.740881 18.858954 0.075749 -3.603254 3.047368 0.037760 0.268380 0.082160 -4.392483 -0.036913 -6.635658 11.555590 0.722654 2.859653 -6.348057 1.113254 9.956199 2.021850 -2.067028 -9.627113 -4.937470 2.993130 35.641112 -4.047800 3.642390 1.274190 -10.592231 -8.403646 5.386728 -51.691422 -9.254610 -2.591248 -23.133024 -38.145066 5.661090 -3.859697 3.239971 -0.009540 0.234950 -0.156580 0.013260 6.568945 10.718039 4.896031 67.511044 18.402067 2.491716 39.465526 33.822602 8.161040 2.461617 -1.783474 -0.155580 0.097170 0.105240 -0.029770 
-0.493150 17.695630 -1.580150 0.913664 -2.617665 0.079304 -14.785323 13.234475 2.709744 14.049674 -1.151636 -17.801459 -5.164024 6.057511 14.529080 -0.239255 3.996877 3.107096 -0.044480 -0.099740 -0.008140 18.477345 -12.004040 1.995494 -15.023661 0.206403 -14.147776 -2.410356 -3.858952 17.637457 0.081633 -3.549693 3.078232 0.040180 0.273570 0.081650 -4.379383 -0.009027 -6.631050 11.451047 0.950082 2.743188 -6.261353 1.335770 9.818407 2.170247 -2.053213 -9.570419 -4.760026 3.020581 34.808043 -3.980310 3.662960 1.044110 -10.820297 -8.181426 5.278861 -53.480509 -9.186889 -2.497791 -23.612355 -35.985320 5.282372 -3.876249 3.227763 -0.015400 0.238820 -0.159220 0.015330 6.523982 10.556903 4.917816 67.268697 18.000193 2.124996 39.582863 34.228243 8.259740 2.457698 -1.787500 -0.155730 0.100210 0.103350 -0.027050 
-0.629640 17.730470 -1.588690 0.545230 -3.561935 0.333819 -14.782811 13.222700 2.665336 14.568818 -1.043897 -18.380436 -4.272960 5.936598 14.921522 -0.239189 3.950969 3.112727 -0.051440 -0.105820 -0.015180 18.485802 -11.957038 2.092519 -14.127380 0.329448 -13.720517 -1.392546 -3.912303 16.342696 0.085028 -3.488693 3.113219 0.031480 0.272450 0.081290 -4.381949 0.025793 -6.649892 11.451234 1.255392 2.781460 -6.215448 1.646603 9.522948 2.331280 -2.079189 -9.577186 -4.731637 3.192630 34.674032 -3.811390 3.751180 1.145810 -11.847171 -8.430998 5.259361 -54.588487 -8.786713 -2.598500 -23.221232 -33.347300 4.580485 -3.888681 3.204946 -0.017620 0.236370 -0.158820 0.013880 7.236496 10.941804 5.021007 66.492294 17.563144 1.635485 39.252801 34.160629 8.113687 2.467124 -1.772066 -0.151360 0.094860 0.105110 -0.024020 
-0.767130 17.766780 -1.601480 0.256101 -4.585234 0.549061 -14.782616 13.215995 2.624962 14.958900 -0.927384 -19.096978 -3.353199 5.849606 15.595962 -0.239312 3.916415 3.110587 -0.054090 -0.106430 -0.021590 18.491932 -11.914124 2.190577 -13.265322 0.444998 -13.320423 -0.592784 -3.901606 15.035169 0.082554 -3.426027 3.146503 0.025080 0.266220 0.078740 -4.377366 0.057046 -6.679666 11.302999 1.615506 2.961922 -6.115815 2.022474 9.097521 2.456887 -2.119281 -9.534419 -4.749526 3.446018 34.791831 -3.503800 3.856130 1.152010 -13.219320 -8.642488 5.182872 -55.366715 -8.181476 -2.768271 -22.749774 -30.432940 3.850797 -3.894579 3.177707 -0.012110 0.227050 -0.153020 0.014240 8.362793 11.340839 5.094858 65.590218 16.990645 1.028677 38.559691 33.809972 7.796940 2.478910 -1.746387 -0.147400 0.090730 0.104830 -0.021740 
-0.900280 17.797090 -1.617940 0.126657 -5.578700 0.763559 -14.784598 13.207831 2.602767 15.096832 -0.851697 -19.962798 -2.603072 5.841001 16.586453 -0.237049 3.915307 3.097194 -0.058710 -0.113090 -0.023510 18.494580 -11.875822 2.282113 -12.579703 0.546738 -13.069109 0.084731 -3.880954 13.863273 0.080003 -3.367177 3.175812 0.014550 0.258590 0.075060 -4.365926 0.084812 -6.723907 11.052892 1.964621 3.276040 -6.195641 2.436422 8.507000 2.607738 -2.152360 -9.461515 -4.770927 3.566682 34.917146 -3.276900 3.878720 1.096790 -15.013141 -8.863120 5.078406 -55.557651 -7.259798 -3.133907 -21.939937 -27.745628 3.131442 -3.897512 3.142982 -0.001820 0.215460 -0.146210 0.011760 9.837415 11.777932 5.164863 64.696639 16.191072 0.272519 37.546239 33.000870 7.260575 2.493273 -1.709683 -0.145760 0.089020 0.105860 -0.022350 
-1.029380 17.816580 -1.636530 0.087287 -6.362173 0.967828 -14.797243 13.195837 2.607638 15.066132 -0.841396 -21.170042 -1.962153 5.941206 18.164419 -0.236169 3.977241 3.056273 -0.051600 -0.109350 -0.011190 18.488967 -11.834911 2.355847 -11.999649 0.625076 -12.914546 0.633380 -3.856606 12.915275 0.073459 -3.313747 3.197306 0.012190 0.242050 0.072940 -4.331021 0.091716 -6.776636 10.624186 2.254342 3.718105 -6.108948 2.790869 7.850042 2.687656 -2.162469 -9.304328 -4.753439 3.484956 34.828161 -3.197010 3.813220 0.636810 -16.645286 -8.852407 4.892577 -55.628806 -6.401236 -3.499438 -21.416460 -25.590008 2.604788 -3.894164 3.113197 0.014360 0.199970 -0.133260 0.007900 11.293553 11.969703 5.128238 63.882831 15.292802 -0.474907 36.331040 31.636708 6.546819 2.505284 -1.672303 -0.143660 0.087800 0.101170 -0.028130 
-1.156620 17.822980 -1.656730 0.049442 -7.231808 1.175854 -14.815097 13.166049 2.653799 15.050853 -0.861768 -22.600665 -1.674834 6.262323 20.322452 -0.218916 4.163066 2.971308 -0.048820 -0.105910 -0.007630 18.483097 -11.782767 2.407193 -11.404830 0.708287 -12.973360 1.118446 -3.840231 12.316663 0.072245 -3.258935 3.218612 0.011440 0.232470 0.066570 -4.288879 0.085523 -6.837063 10.199683 2.539969 4.230368 -5.919913 3.141113 7.152910 2.660384 -2.316020 -9.107420 -4.993480 3.467944 34.537824 -3.041350 3.707270 0.185330 -17.992756 -8.527242 4.651932 -55.738461 -5.528813 -3.968211 -21.061655 -24.319314 2.269232 -3.887820 3.089520 0.026350 0.186490 -0.124650 0.007030 12.671637 11.944482 5.028404 63.172619 14.274803 -1.225042 34.991729 30.025827 5.777943 2.516807 -1.634584 -0.144760 0.092520 0.098620 -0.029930 
-1.279100 17.825550 -1.680030 0.120158 -8.162954 1.357355 -14.844246 13.115699 2.748020 14.923766 -0.958919 -24.169385 -1.739882 6.792058 22.976554 -0.187460 4.478015 2.840590 -0.037080 -0.093850 -0.003510 18.470422 -11.711564 2.435983 -10.906166 0.793220 -13.186597 1.545304 -3.825802 11.907164 0.069546 -3.200590 3.239291 0.015450 0.223470 0.063880 -4.221817 0.051912 -6.909441 9.609335 2.859264 4.865454 -5.565919 3.522437 6.402622 2.526009 -2.572716 -8.829360 -5.438763 3.422816 34.103488 -2.804070 3.461640 -0.476650 -19.155654 -7.801763 4.268941 -55.710097 -4.713346 -4.465694 -21.400398 -23.822293 2.187227 -3.875615 3.079093 0.041790 0.171550 -0.113900 0.011930 14.078620 11.589793 4.873179 62.322618 12.943898 -2.108396 33.932711 28.598897 5.144280 2.521785 -1.603088 -0.143540 0.098110 0.093490 -0.030150 
